<?xml version="1.0" standalone="no"?><!DOCTYPE svg PUBLIC "-//W3C//DTD SVG 1.1//EN" "http://www.w3.org/Graphics/SVG/1.1/DTD/svg11.dtd"><svg t="1584783165158" class="icon" viewBox="0 0 1024 1024" version="1.1" xmlns="http://www.w3.org/2000/svg" p-id="5058" width="128" height="128" xmlns:xlink="http://www.w3.org/1999/xlink"><defs><style type="text/css"></style></defs><path d="M502.3 235.2h20.2v48.3h-20.2z" fill="#CCCCCC" p-id="5059"></path><path d="M505.3 283.5V235.2l-3 3h20.2l-3-3v48.3l3-3h-20.2c-3.9 0-3.9 6 0 6h20.2c1.6 0 3-1.4 3-3V235.2c0-1.6-1.4-3-3-3h-20.2c-1.6 0-3 1.4-3 3v48.3c0 3.8 6 3.8 6 0z" fill="#331100" p-id="5060"></path><path d="M566.9 698.4c142.2 90.9 62.6 93.4-54.6 93.4-117.4 0-198.5-1.7-51.8-93.4 0 0 27.4 51.2 51.6 51.2 23.1 0 54.8-51.2 54.8-51.2z" fill="#FF4D4D" p-id="5061"></path><path d="M565.4 701c20.5 13.1 41.4 26.7 59 43.6 6 5.8 17.1 15.7 15.6 25.3-1.2 7.9-12.3 10.9-18.7 12.6-14.4 3.7-29.6 4.6-44.4 5.3-40.3 1.9-81 1.7-121.3 0.4-15.6-0.5-31.5-1.2-46.9-4.2-7.3-1.4-19.4-3.5-23.3-11-4.6-8.9 7.5-20.2 12.9-25.6C417 729.1 440 714.8 462 701c-1.4-0.4-2.7-0.7-4.1-1.1 9.3 17.3 21.8 36.3 38.5 47.2 9.6 6.3 19.6 6.8 29.5 1 11.2-6.5 20.2-16.7 28.1-26.7 5.5-6.9 10.8-14.1 15.4-21.6 2-3.3-3.1-6.3-5.2-3-9.6 15.5-21.4 31.5-36.1 42.6-8.7 6.6-17.3 9.4-27.2 3.6-10.3-6.1-18.3-16.2-25.1-25.7-4.7-6.5-9.1-13.3-12.9-20.4-0.8-1.4-2.8-1.9-4.1-1.1-21.5 13.5-43.4 27.4-62.1 44.7-7.7 7.1-18.6 17.3-18.5 28.8 0.1 9.4 8.8 14.5 16.6 17.3 13.4 4.9 28.5 5.9 42.6 6.8 20.6 1.3 41.3 1.4 62 1.4 22.5 0 45 0.1 67.5-0.6 17-0.6 34.3-1.3 50.9-4.8 9.1-1.9 21.3-4.9 26.2-13.8 5-9-1.3-19.1-7-26.1-13.2-16.2-31.6-28.7-48.7-40.4-6.6-4.5-13.3-8.9-20.1-13.3-3-2.1-6 3.1-2.8 5.2z" fill="#331100" p-id="5062"></path><path d="M497.4 765.1C362.9 695.8 277.5 256 513.2 256c233.6 0 143.8 443 16.4 510.7-7.1 3.7-25 2.1-32.2-1.6z" fill="#F5F5F5" p-id="5063"></path><path d="M498.2 763.8c-31.8-16.5-54.5-47.9-71.8-78.4-22.3-39.5-37.5-83.2-47.4-127.4-10.2-45.3-14.9-92.5-10.8-138.9 3.5-39.8 13.9-81.4 39-113.4 24.9-31.8 62.3-47.5 102.2-48.3 39.8-0.8 78.2 12.6 104.3 43.6 25.7 30.6 36.8 71.4 40.9 110.4 4.9 46.1 0.9 93.1-8.4 138.4-9.1 44.5-23.3 88.4-44.1 128.9-16 31.2-37 63.9-67.2 83-4.3 2.7-8.3 4.8-13.5 5.3-7.5 0.8-16.4 0.1-23.2-3.2-1.7-0.8-3.3 1.8-1.5 2.6 10.8 5.2 26.2 5.9 36.7-0.2 6.7-3.9 12.9-8.6 18.7-13.7 13.6-12 25-26.5 34.9-41.6 24.5-37.3 41.2-79.8 53.1-122.7 12.8-46.3 20.1-94.6 19.5-142.7-0.6-42-7.1-85.9-27.7-123-18.7-33.8-49.6-57.8-87.8-65.1-40.2-7.8-85-0.9-117.7 24.8-31 24.5-47.8 62.4-55.8 100.2-9.6 45.3-8.4 92.8-1.6 138.4 7 47.1 20.1 93.6 40 137 16.2 35.4 37.5 71.4 68.4 96 6 4.8 12.5 9.1 19.3 12.7 1.7 0.8 3.2-1.8 1.5-2.7z" fill="#331100" p-id="5064"></path><path d="M365.3 420.5c-60 7.1-226.6 21.1-212.4 118.2 13.6 93 166.6 64.4 228.9 36.3 0 0-11.5-52.8-13.5-71.5-2.2-20-3-83-3-83z" fill="#507AFF" p-id="5065"></path><path d="M365.3 417.5c-33.7 4-67.4 7.7-100.4 15.6-34.2 8.1-72.7 20.1-97.1 47-22.8 25.1-25.3 65-4.3 92.3 22.1 28.8 63.1 33.8 96.9 32.9 38.2-1 77.1-9.2 112.6-23.3 3.5-1.4 6.9-2.8 10.4-4.4 1.2-0.6 1.6-2.2 1.4-3.4-4.4-20-8.6-40.2-11.9-60.4-3.7-22.6-3.5-45.9-4-68.8-0.2-8.2-0.3-16.4-0.5-24.5-0.1-3.9-6.1-3.9-6 0 0.3 19.9 0.7 39.8 1.5 59.7 1 23.5 4.8 46.1 9.5 69.1 1.8 8.8 3.6 17.7 5.5 26.5 0.5-1.1 0.9-2.3 1.4-3.4-32.1 14.4-68 22.8-103 25.8-33.1 2.9-74.2 2.3-100.7-20.8-24.7-21.5-28.4-61.3-9.2-87.6 20.4-27.7 57.5-40.3 89.4-48.6 32.7-8.6 66.3-12.9 99.9-16.8 2.9-0.3 5.8-0.7 8.7-1 3.7-0.4 3.7-6.4-0.1-5.9z" fill="#331100" p-id="5066"></path><path d="M658.7 420.5c60 7.1 226.6 21.1 212.4 118.2-13.6 93-166.6 64.4-228.9 36.3 0 0 11.5-52.8 13.5-71.5 2.2-20 3-83 3-83z" fill="#507AFF" p-id="5067"></path><path d="M658.7 423.5c31.9 3.8 63.8 7.4 95.2 14.5 33.2 7.6 70.3 18.4 95.1 43.1 11 10.9 18.5 24.9 19.7 40.4 1.4 16.6-2.8 34.3-13.2 47.5-21.6 27.6-62.2 31.3-94.6 30.1-36.5-1.4-73.5-9.4-107.5-22.7-3.3-1.3-6.5-2.6-9.7-4.1 0.5 1.1 0.9 2.3 1.4 3.4 4.4-20.2 8.7-40.5 12-60.9 3.7-23 3.6-46.6 4.1-69.9 0.2-8.2 0.3-16.4 0.5-24.5 0.1-3.9-5.9-3.9-6 0-0.3 19.7-0.7 39.4-1.5 59.1-0.4 10.1-0.8 20.3-2.3 30.3-1.9 12.6-4.4 25.2-7 37.7-1.8 8.8-3.6 17.7-5.5 26.5-0.3 1.2 0.1 2.8 1.4 3.4 33.7 15.1 71 23.8 107.7 26.8 34.6 2.9 76.6 1.2 104-23.2 25.2-22.5 29.9-63.9 11.2-91.8-19.8-29.5-57.2-43.5-90.1-52.6-34.4-9.5-70-14.1-105.4-18.1-3.1-0.4-6.3-0.7-9.4-1.1-3.9-0.4-3.9 5.6-0.1 6.1z" fill="#331100" p-id="5068"></path><path d="M498.9 762.6c-31.6-16.4-54.1-47.6-71.2-77.9-22.3-39.4-37.4-82.9-47.3-127-10.1-45.2-14.8-92.2-10.7-138.5 3.5-39.4 13.8-80.6 38.6-112.3 24.6-31.5 61.6-47 101.1-47.8 39.5-0.8 77.4 12.5 103.2 43.2 25.5 30.2 36.4 70.7 40.5 109.3 4.9 46 0.9 92.8-8.3 138-9 44.4-23.2 88.2-43.9 128.5-15.9 30.9-36.6 63.5-66.7 82.5-4.1 2.6-7.9 4.7-12.8 5.1-7.2 0.6-15.9 0-22.5-3.1-3.5-1.7-6.5 3.5-3 5.2 11.3 5.4 27.3 6.2 38.2-0.2 6.8-3.9 13.1-8.7 19-13.9 13.7-12.1 25.1-26.7 35.1-41.9 24.6-37.4 41.4-80.1 53.3-123.1 12.9-46.4 20.2-94.9 19.5-143.1-0.6-42.2-7.2-86.4-27.9-123.8-18.9-34.1-50.2-58.4-88.7-65.8-40.8-7.9-86-0.9-119.1 25.2-31.2 24.6-48.1 62.8-56.2 100.9-9.7 45.6-8.4 93.3-1.6 139.2 7 47.2 20.2 93.9 40.1 137.3 16.3 35.5 37.7 71.6 68.6 96.3 6.1 4.9 12.7 9.3 19.6 12.9 3.5 1.7 6.6-3.5 3.1-5.2z" fill="#331100" p-id="5069"></path><path d="M512.6 234.8c-0.1 0-0.2 0-0.2-0.1-28.7-7.3-109.1-29.3-88.3 4.4 10.8 17.6 49.8 7 88.5-4.3 0 0.1 0 0 0 0z" fill="#FF4D4D" p-id="5070"></path><path d="M513 235.2v0.1c19.9 5.1 117.7 29.6 84.9-9-11-13-47.8-1.8-84.9 8.9z" fill="#FF5555" p-id="5071"></path><path d="M512.4 235.2c-28.7-7.3-109.1-29.3-88.3 4.4 21.3 34.6 151.2-39.8 173.8-13.3 33.2 39.1-67.2 13.6-85.5 8.9z" fill="#FF4D4D" p-id="5072"></path><path d="M513.2 232.3c-15.7-4-31.5-8.1-47.5-11-8.2-1.5-16.5-2.7-24.8-2.9-5.6-0.2-12.1-0.1-17.3 2.6-10.3 5.4-5.2 18.9 1.9 24.8 8.8 7.3 22.2 6.6 32.9 5.3 33.2-4 64.6-17.2 97.2-24.4 10.7-2.4 25.2-6.2 35.8-1.5 5.5 2.4 15.3 14.4 6.4 17.8-5 1.9-11 1.7-16.2 1.5-7.5-0.3-15-1.2-22.4-2.4-13.6-2.2-27-5.2-40.3-8.5-2-0.3-3.8-0.8-5.7-1.3-3.7-1-5.3 4.8-1.6 5.8 11.4 2.9 23 5.6 34.6 7.9 14.1 2.7 28.9 5.5 43.3 4.6 8.1-0.5 20.3-3.3 17.8-14.1-2.4-10.5-11.5-17.6-21.8-18.7-13.3-1.5-27.4 2.1-40.2 5.3-16.9 4.3-33.5 9.5-50.2 14.1-15 4.1-30.5 8.4-46.2 8.7-10.2 0.2-22.2-2-24.9-13.6-2.7-11.4 21.7-7.8 27.2-7.1 17.2 2 34.2 6.2 50.9 10.5 3.2 0.8 6.3 1.6 9.5 2.4 3.7 0.9 5.3-4.8 1.6-5.8z" fill="#331100" p-id="5073"></path><path d="M432.6 444.8a97.2 80.5 90 1 0 161 0 97.2 80.5 90 1 0-161 0Z" fill="#CCCCCC" p-id="5074"></path><path d="M513.1 544.9c-46.1 0-83.5-44.9-83.5-100.2s37.5-100.2 83.5-100.2 83.5 44.9 83.5 100.2-37.4 100.2-83.5 100.2z m0-194.3c-42.7 0-77.5 42.2-77.5 94.2 0 51.9 34.8 94.2 77.5 94.2s77.5-42.2 77.5-94.2c0-51.9-34.7-94.2-77.5-94.2z" fill="#331100" p-id="5075"></path><path d="M593.6 408.1c0 53.7-36.1-3.6-80.5-3.6-44.5 0-80.5 57.3-80.5 3.6s36.1-60.5 80.5-60.5c44.5 0 80.5 6.9 80.5 60.5z" fill="#507AFF" p-id="5076"></path><path d="M583.6 434.1c-6.4 0-14.3-4.5-23.7-9.8-13.1-7.5-29.5-16.7-46.8-16.7-17.3 0-33.6 9.3-46.8 16.7-12.3 7-22.1 12.6-29.2 8.4-5.3-3.1-7.6-10.6-7.6-24.5 0-25.9 8.2-43.2 25.1-53 16.1-9.3 38.6-10.5 58.4-10.5 19.9 0 42.4 1.3 58.4 10.5 16.9 9.8 25.1 27.1 25.1 53 0 13.9-2.3 21.5-7.6 24.5-1.5 0.9-3.4 1.4-5.3 1.4z m-70.5-32.6c18.9 0 36 9.7 49.7 17.5 9.8 5.6 19.1 10.8 23.2 8.5 2.1-1.2 4.6-5.6 4.6-19.4 0-23.6-7.2-39.2-22.1-47.8-14.8-8.6-36.4-9.7-55.4-9.7s-40.6 1.2-55.4 9.7c-14.9 8.6-22.1 24.2-22.1 47.8 0 13.8 2.5 18.1 4.6 19.4 4.1 2.4 13.4-2.9 23.2-8.5 13.7-7.8 30.8-17.5 49.7-17.5z" fill="#331100" p-id="5077"></path><path d="M525.5 231c22.3-45.6-46.4-45.3-25 0.5 2.2 4.9 22.7 4.3 25-0.5z" fill="#507AFF" p-id="5078"></path><path d="M528.1 232.6c4.1-8.7 7.3-19.5 2.5-28.6-3.3-6.3-10.2-10-17.3-9.9-20.1 0.2-24.5 24.6-15.5 39.1 2.9 4.7 10.2 5 15.1 4.8 5-0.2 12.3-0.8 15.2-5.4 2-3.3-3.1-6.3-5.2-3-1.6 2.6-8.5 2.4-11 2.4-3.8 0-8 0.1-9.6-3.7-2.7-6.5-4.6-14.7-1-21.3 4.7-8.4 17.8-9.5 23.4-1.3 4.8 7.1 1.6 16.9-1.7 23.9-1.7 3.4 3.4 6.4 5.1 3z" fill="#331100" p-id="5079"></path><path d="M531.6 613.1c0 12.5-10.1 82.2-19.9 82.2-9.7 0-19.9-69.7-19.9-82.2s7.4-22.7 19.9-22.7c12.5 0 19.9 10.1 19.9 22.7z" fill="#FF4D4D" p-id="5080"></path><path d="M511.7 698.2c-3.9 0-6.9-3.9-10-13.1-2.2-6.3-4.4-15-6.5-25.7-3.8-18.9-6.4-39.6-6.4-46.4 0-15.1 9.4-25.7 22.9-25.7 13.5 0 22.9 10.6 22.9 25.7 0 6.8-2.7 28-6.3 46.4-6.8 34.2-12.2 38.8-16.6 38.8z m0-104.8c-11.7 0-16.9 9.9-16.9 19.7 0 6 2.4 25.3 5.9 43.2 5.6 29.2 9.9 34.8 11.1 35.8 1.1-1 5.5-6.6 11.1-35.8 3.4-17.9 5.8-37.2 5.8-43.3-0.1-9.7-5.3-19.6-17-19.6z" fill="#331100" p-id="5081"></path></svg>